# xmcd
#
# Track frame offsets:
#	150
#	16325
#	30875
#	46246
#	64745
#	92336
#	110492
#	127881
#	154424
#	165649
#	181958
#
# Disc length: 2680 seconds
# Revision: 0
# Processed by: cddbd v1.5.2PL0 Copyright (c) Steve Scherf et al.
# Submitted via: dBpowerAMP V12.0
#
DISCID=7c0a760b
DTITLE=The Pumpers - Pumpers
DYEAR=2009
DGENRE=Blues
TTITLE0=Help Me Spend My Dough
TTITLE1=She's Got That Stuff
TTITLE2=Murder in the 1st Degree
TTITLE3=Got You on My Mind
TTITLE4=Feel So Bad
TTITLE5=Long Black Veil
TTITLE6=In My Younger Days
TTITLE7=Driftin' Blues
TTITLE8=My Girl Josephine
TTITLE9=This Old House
TTITLE10=Travelin' Mood
EXTD=
EXTT0=
EXTT1=
EXTT2=
EXTT3=
EXTT4=
EXTT5=
EXTT6=
EXTT7=
EXTT8=
EXTT9=
EXTT10=
PLAYORDER=
